<svg width="235" height="68" viewBox="0 0 235 68" fill="none" xmlns="http://www.w3.org/2000/svg">
<g filter="url(#filter0_d_19_119)">
<rect x="4" width="227" height="59.1841" fill="white" shape-rendering="crispEdges"/>
<g clip-path="url(#clip0_19_119)">
<path d="M23 0L4 13.646V48.6501L14.5341 59.1841L14.3021 22.4196L23 15.3082L31.6979 22.4196L31.4659 59.1841L42 48.6501V13.646L23 0Z" fill="#252420"/>
<path d="M29.9939 29.5921L23 33.791L16.0062 29.5921V41.8506L23 46.055L29.9939 41.8506V29.5921Z" fill="#FF7401"/>
</g>
<path d="M66.6875 35.9358H60.4219L59.2031 40.5921H54.3438L61.4531 17.8421H65.6562L72.8125 40.5921H67.9062L66.6875 35.9358ZM61.4219 32.1077H65.6719L63.5469 23.9983L61.4219 32.1077ZM80.3438 34.0764L79.1562 35.4046V40.5921H74.7344V16.5921H79.1562V29.5608L79.7031 28.7483L82.7656 23.6858H88.0312L83.125 30.6546L88.5 40.5921H83.4375L80.3438 34.0764ZM98.0781 40.5921C97.9531 40.3317 97.8281 39.8942 97.7031 39.2796C96.9115 40.3629 95.8385 40.9046 94.4844 40.9046C93.0677 40.9046 91.8906 40.4358 90.9531 39.4983C90.026 38.5608 89.5625 37.3473 89.5625 35.8577C89.5625 34.0869 90.125 32.7171 91.25 31.7483C92.3854 30.7796 94.0156 30.2848 96.1406 30.2639H97.4844V28.9046C97.4844 28.1442 97.3542 27.6077 97.0938 27.2952C96.8333 26.9827 96.4531 26.8264 95.9531 26.8264C94.849 26.8264 94.2969 27.4723 94.2969 28.7639H89.875C89.875 27.2014 90.4583 25.915 91.625 24.9046C92.8021 23.8837 94.2865 23.3733 96.0781 23.3733C97.9323 23.3733 99.3646 23.8577 100.375 24.8264C101.396 25.7848 101.906 27.1598 101.906 28.9514V36.9046C101.927 38.3629 102.135 39.5035 102.531 40.3264V40.5921H98.0781ZM95.4688 37.4358C95.9583 37.4358 96.375 37.3369 96.7188 37.1389C97.0625 36.941 97.3177 36.7067 97.4844 36.4358V32.9202H96.4219C95.6719 32.9202 95.0781 33.1598 94.6406 33.6389C94.2135 34.1181 94 34.7587 94 35.5608C94 36.8108 94.4896 37.4358 95.4688 37.4358ZM104.516 31.6233C104.516 28.8525 104.984 26.7848 105.922 25.4202C106.859 24.0556 108.224 23.3733 110.016 23.3733C111.318 23.3733 112.401 23.9358 113.266 25.0608V16.5921H117.719V40.5921H113.703L113.5 38.8733C112.594 40.2275 111.427 40.9046 110 40.9046C108.229 40.9046 106.875 40.2275 105.938 38.8733C105.01 37.5192 104.536 35.5296 104.516 32.9046V31.6233ZM108.953 32.7327C108.953 34.3994 109.13 35.566 109.484 36.2327C109.839 36.8889 110.438 37.2171 111.281 37.2171C112.156 37.2171 112.818 36.8264 113.266 36.0452V28.3264C112.828 27.4931 112.172 27.0764 111.297 27.0764C110.484 27.0764 109.891 27.4046 109.516 28.0608C109.141 28.7171 108.953 29.8837 108.953 31.5608V32.7327ZM127.812 40.9046C125.542 40.9046 123.771 40.2275 122.5 38.8733C121.229 37.5192 120.594 35.5817 120.594 33.0608V31.7171C120.594 29.0504 121.177 26.9931 122.344 25.5452C123.51 24.0973 125.182 23.3733 127.359 23.3733C129.484 23.3733 131.083 24.0556 132.156 25.4202C133.229 26.7744 133.776 28.7848 133.797 31.4514V33.6233H125C125.062 34.8733 125.339 35.79 125.828 36.3733C126.318 36.9462 127.073 37.2327 128.094 37.2327C129.573 37.2327 130.807 36.7275 131.797 35.7171L133.531 38.3889C132.99 39.1389 132.203 39.7483 131.172 40.2171C130.141 40.6754 129.021 40.9046 127.812 40.9046ZM125.031 30.5296H129.453V30.1233C129.432 29.1129 129.266 28.3473 128.953 27.8264C128.641 27.3056 128.099 27.0452 127.328 27.0452C126.557 27.0452 125.995 27.3212 125.641 27.8733C125.297 28.4254 125.094 29.3108 125.031 30.5296ZM140.453 23.6858L140.578 25.2483C141.568 23.9983 142.875 23.3733 144.5 23.3733C146.188 23.3733 147.38 24.1337 148.078 25.6546C149.047 24.1337 150.427 23.3733 152.219 23.3733C155.177 23.3733 156.693 25.4202 156.766 29.5139V40.5921H152.344V29.7952C152.344 28.816 152.208 28.1181 151.938 27.7014C151.667 27.2848 151.208 27.0764 150.562 27.0764C149.74 27.0764 149.125 27.5817 148.719 28.5921L148.75 29.1233V40.5921H144.328V29.8264C144.328 28.8577 144.198 28.1598 143.938 27.7327C143.677 27.2952 143.214 27.0764 142.547 27.0764C141.786 27.0764 141.182 27.4879 140.734 28.3108V40.5921H136.312V23.6858H140.453Z" fill="#252420"/>
<path d="M164.094 23.6858L164.219 25.3577C165.219 24.0348 166.526 23.3733 168.141 23.3733C171.047 23.3733 172.542 25.4098 172.625 29.4827V40.5921H168.188V29.8108C168.188 28.8525 168.042 28.1598 167.75 27.7327C167.469 27.2952 166.969 27.0764 166.25 27.0764C165.448 27.0764 164.823 27.4879 164.375 28.3108V40.5921H159.938V23.6858H164.094ZM183.828 40.5921C183.703 40.3317 183.578 39.8942 183.453 39.2796C182.661 40.3629 181.589 40.9046 180.234 40.9046C178.818 40.9046 177.641 40.4358 176.703 39.4983C175.776 38.5608 175.312 37.3473 175.312 35.8577C175.312 34.0869 175.875 32.7171 177 31.7483C178.135 30.7796 179.766 30.2848 181.891 30.2639H183.234V28.9046C183.234 28.1442 183.104 27.6077 182.844 27.2952C182.583 26.9827 182.203 26.8264 181.703 26.8264C180.599 26.8264 180.047 27.4723 180.047 28.7639H175.625C175.625 27.2014 176.208 25.915 177.375 24.9046C178.552 23.8837 180.036 23.3733 181.828 23.3733C183.682 23.3733 185.115 23.8577 186.125 24.8264C187.146 25.7848 187.656 27.1598 187.656 28.9514V36.9046C187.677 38.3629 187.885 39.5035 188.281 40.3264V40.5921H183.828ZM181.219 37.4358C181.708 37.4358 182.125 37.3369 182.469 37.1389C182.812 36.941 183.068 36.7067 183.234 36.4358V32.9202H182.172C181.422 32.9202 180.828 33.1598 180.391 33.6389C179.964 34.1181 179.75 34.7587 179.75 35.5608C179.75 36.8108 180.24 37.4358 181.219 37.4358ZM198.344 36.0608C198.344 35.6858 198.161 35.3421 197.797 35.0296C197.443 34.7067 196.646 34.2744 195.406 33.7327C193.583 32.9931 192.328 32.2275 191.641 31.4358C190.964 30.6442 190.625 29.6598 190.625 28.4827C190.625 27.0035 191.156 25.7848 192.219 24.8264C193.292 23.8577 194.708 23.3733 196.469 23.3733C198.323 23.3733 199.807 23.8525 200.922 24.8108C202.036 25.7692 202.594 27.0556 202.594 28.6702H198.172C198.172 27.2952 197.599 26.6077 196.453 26.6077C195.984 26.6077 195.599 26.7535 195.297 27.0452C194.995 27.3369 194.844 27.7431 194.844 28.2639C194.844 28.6389 195.01 28.9723 195.344 29.2639C195.677 29.5452 196.464 29.9514 197.703 30.4827C199.505 31.1494 200.776 31.8942 201.516 32.7171C202.266 33.5296 202.641 34.5869 202.641 35.8889C202.641 37.3994 202.073 38.6129 200.938 39.5296C199.802 40.4462 198.312 40.9046 196.469 40.9046C195.229 40.9046 194.135 40.665 193.188 40.1858C192.24 39.6962 191.495 39.0192 190.953 38.1546C190.422 37.29 190.156 36.3577 190.156 35.3577H194.359C194.38 36.1285 194.557 36.7067 194.891 37.0921C195.234 37.4775 195.792 37.6702 196.562 37.6702C197.75 37.6702 198.344 37.1337 198.344 36.0608ZM209.703 25.1702C210.661 23.9723 211.839 23.3733 213.234 23.3733C214.776 23.3733 215.948 23.915 216.75 24.9983C217.552 26.0817 217.958 27.6962 217.969 29.8421V40.5921H213.531V29.8889C213.531 28.8994 213.375 28.1858 213.062 27.7483C212.76 27.3004 212.266 27.0764 211.578 27.0764C210.776 27.0764 210.151 27.4462 209.703 28.1858V40.5921H205.281V16.5921H209.703V25.1702ZM229.484 27.9514L228.016 27.8264C226.807 27.8264 225.99 28.3577 225.562 29.4202V40.5921H221.125V23.6858H225.297L225.422 25.5139C226.12 24.0869 227.083 23.3733 228.312 23.3733C228.812 23.3733 229.219 23.441 229.531 23.5764L229.484 27.9514Z" fill="#FF7500"/>
<rect x="4.5" y="0.5" width="226" height="58.1841" stroke="black" shape-rendering="crispEdges"/>
</g>
<defs>
<filter id="filter0_d_19_119" x="0" y="0" width="235" height="67.1841" filterUnits="userSpaceOnUse" color-interpolation-filters="sRGB">
<feFlood flood-opacity="0" result="BackgroundImageFix"/>
<feColorMatrix in="SourceAlpha" type="matrix" values="0 0 0 0 0 0 0 0 0 0 0 0 0 0 0 0 0 0 127 0" result="hardAlpha"/>
<feOffset dy="4"/>
<feGaussianBlur stdDeviation="2"/>
<feComposite in2="hardAlpha" operator="out"/>
<feColorMatrix type="matrix" values="0 0 0 0 0 0 0 0 0 0 0 0 0 0 0 0 0 0 0.25 0"/>
<feBlend mode="normal" in2="BackgroundImageFix" result="effect1_dropShadow_19_119"/>
<feBlend mode="normal" in="SourceGraphic" in2="effect1_dropShadow_19_119" result="shape"/>
</filter>
<clipPath id="clip0_19_119">
<rect width="38" height="59.1841" fill="white" transform="translate(4)"/>
</clipPath>
</defs>
</svg>
